# xmcd
#
# Track frame offsets:
#	150
#	11849
#	26675
#	41174
#	58606
#	74336
#	92399
#	110364
#	125114
#	142544
#	157427
#	179109
#	193185
#	208781
#	225328
#	242937
#	256975
#	271588
#	288859
#	306245
#
# Disc length: 4288 seconds
#
# Revision: 1
# Processed by: cddbd v1.4PL0 Copyright (c) Steve Scherf et al.
# Submitted via: audiograbber 1.80
#
DISCID=2710be14
DTITLE=Various Artist - Hott Country 011
DYEAR=1900
DGENRE=
TTITLE0=Alan Jackson - Little Bitty
TTITLE1=Tracy Lawrence - Is That A Tear
TTITLE2=Trisha Yearwood - Everybody Knows
TTITLE3=John Michael Montgomery - Friends
TTITLE4=Vince Gill - Pretty Little Adriana
TTITLE5=Marty Stuart - You Can't Stop Love
TTITLE6=James Bonamy - All I Do Is Love Her
TTITLE7=Mark Willis - High Low And In Between
TTITLE8=Ty Herndon - She Wants To Be Wanted Again
TTITLE9=Sammy Kershaw - Politics Religion And Her
TTITLE10=Wynonna - Somebody To Love Her
TTITLE11=Collin Raye - What If Jesus Came Back Like That
TTITLE12=Paul Brandt - I Meant to Do That
TTITLE13=Billy Dean - I Wouldn't Be A Man
TTITLE14=Clint Black - Half Way Up
TTITLE15=Mavericks - I Don't Care If You Love Me Anymore
TTITLE16=Chris Ward - When You Get To Be You
TTITLE17=Shania Twain - God Bless The Child
TTITLE18=Toby Keith - Me Too
TTITLE19=Travis Tritt - Where Corn Don't Grow
EXTD=
EXTT0=
EXTT1=
EXTT2=
EXTT3=
EXTT4=
EXTT5=
EXTT6=
EXTT7=
EXTT8=
EXTT9=
EXTT10=
EXTT11=
EXTT12=
EXTT13=
EXTT14=
EXTT15=
EXTT16=
EXTT17=
EXTT18=
EXTT19=
PLAYORDER=
